<?xml version="1.0" standalone="no"?><!DOCTYPE svg PUBLIC "-//W3C//DTD SVG 1.1//EN" "http://www.w3.org/Graphics/SVG/1.1/DTD/svg11.dtd"><svg t="1617951334820" class="icon" viewBox="0 0 1024 1024" version="1.1" xmlns="http://www.w3.org/2000/svg" p-id="9277" xmlns:xlink="http://www.w3.org/1999/xlink" width="200" height="200"><defs><style type="text/css"></style></defs><path d="M512 0c282.773854 0 512 229.238634 512 512 0 282.773854-229.226146 512-512 512S0 794.773854 0 512C0 229.238634 229.226146 0 512 0z" fill="#E5E5E5" p-id="9278"></path><path d="M512 24.97561c268.974829 0 487.02439 218.049561 487.02439 487.02439S780.974829 999.02439 512 999.02439 24.97561 780.974829 24.97561 512 243.025171 24.97561 512 24.97561z" fill="#FFFFFF" p-id="9279"></path><path d="M705.560976 349.658537h-374.634147a18.731707 18.731707 0 0 1 0-37.463415h374.634147a18.731707 18.731707 0 1 1 0 37.463415z m-194.56 42.820683a19.23122 19.23122 0 0 1 26.574048 0l168.298147 163.003317a17.795122 17.795122 0 0 1 0 25.737365 19.218732 19.218732 0 0 1-26.561561 0L549.463415 455.467707V761.756098a24.97561 24.97561 0 0 1-49.95122 0V455.093073l-130.235317 126.126829a19.23122 19.23122 0 0 1-26.574049 0 17.80761 17.80761 0 0 1 0-25.737365L511.000976 392.47922z" fill="#1FBA5F" p-id="9280"></path></svg>