<?xml version="1.0" standalone="no"?><!DOCTYPE svg PUBLIC "-//W3C//DTD SVG 1.1//EN" "http://www.w3.org/Graphics/SVG/1.1/DTD/svg11.dtd"><svg t="1617788897218" class="icon" viewBox="0 0 1024 1024" version="1.1" xmlns="http://www.w3.org/2000/svg" p-id="3212" xmlns:xlink="http://www.w3.org/1999/xlink" width="200" height="200"><defs><style type="text/css"></style></defs><path d="M499.2 499.6h34.9l-40.8 136.2h-34.9l40.8-136.2zM397.9 333.1h90.8L382.8 651H292l105.9-317.9z" fill="#00E7DD" p-id="3213"></path><path d="M559.9 658.4c8.4 0 15.1-6.8 15.1-15.1 0-8.4-6.8-15.1-15.1-15.1H181.4V295.1h545V386c0 8.4 6.8 15.1 15.1 15.1 8.4 0 15.1-6.8 15.1-15.1v-90.8c0-16.7-13.6-30.3-30.3-30.3h-545c-16.7 0-30.3 13.6-30.3 30.3v408.7c0 16.7 13.6 30.3 30.3 30.3h196.8v60.6h-45.4c-8.4 0-15.1 6.8-15.1 15.1 0 8.4 6.8 15.1 15.1 15.1h227.1c8.4 0 15.1-6.8 15.1-15.1 0-8.4-6.8-15.1-15.1-15.1h-45.4v-60.6h45.4c8.4 0 15.1-6.8 15.1-15.1 0-8.4-6.8-15.1-15.1-15.1H181.4v-45.4h378.5z m-151.4 75.7h75.7v60.6h-75.7v-60.6z m348.2-302.8h-30.3c-66.9 0-121.1 54.2-121.1 121.1v151.4c0 66.9 54.2 121.1 121.1 121.1h30.3c66.9 0 121.1-54.2 121.1-121.1V552.5c0-66.9-54.2-121.2-121.1-121.2z m90.8 272.5c0 50.2-40.7 90.8-90.8 90.8h-30.3c-50.2 0-90.8-40.7-90.8-90.8V552.5c0-50.2 40.7-90.8 90.8-90.8h30.3c50.2 0 90.8 40.7 90.8 90.8v151.3zM741.6 507c-25.1 0-45.4 20.3-45.4 45.4 0 25.1 20.3 45.4 45.4 45.4 25.1 0 45.4-20.3 45.4-45.4 0-25-20.3-45.4-45.4-45.4z m0 60.6c-8.4 0-15.1-6.8-15.1-15.1 0-8.4 6.8-15.1 15.1-15.1 8.4 0 15.1 6.8 15.1 15.1s-6.8 15.1-15.1 15.1z" fill="#008CFF" p-id="3214"></path></svg>