<?xml version="1.0" standalone="no"?><!DOCTYPE svg PUBLIC "-//W3C//DTD SVG 1.1//EN" "http://www.w3.org/Graphics/SVG/1.1/DTD/svg11.dtd"><svg t="1617265864354" class="icon" viewBox="0 0 1024 1024" version="1.1" xmlns="http://www.w3.org/2000/svg" p-id="2102" xmlns:xlink="http://www.w3.org/1999/xlink" width="200" height="200"><defs><style type="text/css"></style></defs><path d="M950.42 476l-40.77-41.43-95.36-96.93L703 224.44l-89.05-90.51-23.43-23.81c-1.53-1.56-3.06-3.1-4.58-4.66a111 111 0 0 0-43.68-27.69C506.57 65.36 463.59 75.4 436.89 102c-5.13 5.1-10.07 10.4-15.1 15.6l-78 80.6L235 310.48 133 415.87l-56.73 58.6-2.62 2.7c-11 11.31-12.1 31.42 0 42.52 11.84 10.87 30.83 12.08 42.52 0L139 496.07v363.27c0 18.71 4.93 38 16.18 53.23 17.75 24 44 38.64 74.23 38.88H766.85c9.32 0 18.65 0.09 28 0 32.23-0.32 63.55-17.9 79-46.58 7.8-14.5 11.24-30.23 11.24-46.61V495.47c7.34 7.53 14.71 15 22.23 22.35 0.22 0.21 0.43 0.43 0.64 0.65 11.05 11.23 31.59 11.9 42.52 0 11.03-12.08 11.73-30.54-0.06-42.47zM210.89 885.34a9.46 9.46 0 0 1 1.41 1.11c-0.09 0.06-0.68-0.45-1.41-1.11z m605.2-2.83c-1 1-2.12 1.9-3.15 2.86a61.85 61.85 0 0 1-6.35 3.67 66.73 66.73 0 0 1-7.63 2.1c-5.86 0.39-11.79 0.18-17.63 0.18h-485c-22.19 0-44.4 0.16-66.59 0-1.53 0-3-0.07-4.56-0.17a62.19 62.19 0 0 1-7.73-2.12 60.23 60.23 0 0 1-6-3.42c-0.38-0.25-0.74-0.5-1.1-0.76-1.1-1-2.28-2.23-2.4-2.34-1-1-1.89-2.12-2.86-3.16a60.58 60.58 0 0 1-3.66-6.34 62.71 62.71 0 0 1-2.1-7.62c-0.29-4.57-0.18-9.16-0.18-13.74V489.26c0-17.5 0.36-35.05 0-52.54v-0.75c0-0.64 0-1.29-0.08-1.93l45-46.48 107.31-110.82 90.36-93.33c12.72-13.14 25.11-26.74 38.23-39.5 0.75-0.72 1.53-1.39 2.32-2 0.58-0.39 1.15-0.8 1.74-1.18a71.29 71.29 0 0 1 8.18-4.59 78 78 0 0 1 11.41-3.14 77.66 77.66 0 0 1 12 0 78.42 78.42 0 0 1 11.67 3.21 75.72 75.72 0 0 1 7.5 4.22c-1.87-1.39-0.19-0.6 1 0.43l1.08 0.94c0.55 0.4 1.1 0.8 1.66 1.17l-1.31-0.86c1.67 1.48 3.32 3 4.89 4.58 0.53 0.55 1 1.1 1.58 1.64 1.66 1.71 3.33 3.39 5 5.08l23.49 23.88 85.94 87.35L766 374.2l58.95 59.91v377.63c0 16.41 0.14 32.82 0 49.23 0 1.44-0.06 2.86-0.16 4.28a62.05 62.05 0 0 1-2.13 7.77 58.31 58.31 0 0 1-3.42 6l-0.75 1.1c-1.1 1.1-2.29 2.28-2.4 2.39z m2.84-2.92a10.44 10.44 0 0 1 1.1-1.41c0.06 0.09-0.44 0.69-1.1 1.41z" fill="#0071C3" p-id="2103"></path><path d="M536.88 141.77l-0.63-0.44c-0.48-0.33-1-0.62-1.45-0.93 0.51 0.38 1.29 0.92 2.43 1.68z" fill="#0071C3" p-id="2104"></path><path d="M434.45 891.32V717.94c0-9.59-0.62-19.53 0.12-29.18a65.55 65.55 0 0 1 2.16-7.94 61.47 61.47 0 0 1 3.43-6c0.24-0.37 0.5-0.73 0.75-1.09 1-1.11 2.23-2.29 2.35-2.4 1-1 2.12-1.89 3.15-2.86a59 59 0 0 1 6.35-3.66 63.66 63.66 0 0 1 8-2.19c11.43-0.91 23.24-0.1 34.61-0.1h54.64c4.55 0 9.11-0.1 13.64 0.19a62.86 62.86 0 0 1 7.63 2.1 58.4 58.4 0 0 1 6 3.43c0.37 0.24 0.73 0.49 1.1 0.75 1.1 1 2.28 2.23 2.39 2.34 1 1 1.9 2.12 2.86 3.16a60.66 60.66 0 0 1 3.67 6.34 65.11 65.11 0 0 1 2.12 7.77c0.57 7.85 0.16 15.9 0.16 23.72v179h60.13v-183-15.48c-0.21-24.67-10.23-49.64-28.78-66.3a93.51 93.51 0 0 0-63.31-24.18h-78.81c-13 0-25.81-0.26-38.49 3.28-29.22 8.16-51.53 30.61-61.52 58.91-3.8 10.76-4.48 22.29-4.48 33.61v193.16zM577.89 668.5a11.48 11.48 0 0 1-1.41-1.1c0.09-0.07 0.69 0.43 1.41 1.1z m-137.47 5.75a10.44 10.44 0 0 1-1.1 1.41c-0.07-0.09 0.44-0.66 1.1-1.41zM403.06 951.45H617.67a19.25 19.25 0 0 0 2 0h1.28z" fill="#FD9A16" p-id="2105"></path></svg>