<?xml version="1.0" standalone="no"?><!DOCTYPE svg PUBLIC "-//W3C//DTD SVG 1.1//EN" "http://www.w3.org/Graphics/SVG/1.1/DTD/svg11.dtd"><svg t="1617265938460" class="icon" viewBox="0 0 1024 1024" version="1.1" xmlns="http://www.w3.org/2000/svg" p-id="3661" xmlns:xlink="http://www.w3.org/1999/xlink" width="200" height="200"><defs><style type="text/css"></style></defs><path d="M326.8 714.2L307 697.4l-91-566.2 39.5-6.4 88.3 549.4 451-1.2 0.1 40z" fill="#003DE0" p-id="3662"></path><path d="M235.4 153.4H77.5c-11.3 0-20.5-9.2-20.5-20.5V128l20-20h158.4c11.3 0 20.5 9.2 20.5 20.5v4.4c0 11.3-9.2 20.5-20.5 20.5zM718 790H435.9l-20-20v-1.1l20-20H718l20 20v1.1zM870 584H563v-40h287V276H332v-40h538l20 20v308z" fill="#003DE0" p-id="3663"></path><path d="M359.5 917C292 917 237 861.4 237 793h40c0 46.3 37 84 82.5 84s82.5-37.7 82.5-84h40c0 68.4-55 124-122.5 124z" fill="#003DE0" p-id="3664"></path><path d="M794.5 917C727 917 672 862 672 794.5h40c0 45.5 37 82.5 82.5 82.5s82.5-37 82.5-82.5c0-44.9-37-81.5-82.5-81.5v-40c32.7 0 63.5 12.5 86.5 35.3 23.2 22.9 36 53.5 36 86.2C917 862 862 917 794.5 917z" fill="#003DE0" p-id="3665"></path></svg>