<?xml version="1.0" standalone="no"?><!DOCTYPE svg PUBLIC "-//W3C//DTD SVG 1.1//EN" "http://www.w3.org/Graphics/SVG/1.1/DTD/svg11.dtd"><svg t="1617263192653" class="icon" viewBox="0 0 1024 1024" version="1.1" xmlns="http://www.w3.org/2000/svg" p-id="6672" xmlns:xlink="http://www.w3.org/1999/xlink" width="200" height="200"><defs><style type="text/css"></style></defs><path d="M919.296 259.84l-519.168-44.544c-22.528 0-47.616 18.176-40.704 40.704l83.776 312.128c9.472 28.16 31.36 28.48 53.888 28.48h391.68a40.64 40.64 0 0 0 40.704-40.704L960 305.92c0-22.4-12.48-43.712-40.704-46.208z m-77.888 383.872s68.992 36.416-3.008 86.4H349.184L199.168 214.016l-112.96-2.56s-54.208-58.176 6.784-89.024l169.408 13.568 138.88 507.712h440.128z m-392.192 115.584a71.232 71.232 0 1 0 0 142.464 71.232 71.232 0 0 0 0-142.464z m322.112 1.28a70.464 70.464 0 1 0-0.064 140.992 70.464 70.464 0 0 0 0-140.992z" fill="#333333" p-id="6673"></path></svg>